<svg viewBox="0 0 1649 1024"><path d="M216.8 368.51c40.194-21.101 81.253-52.762 123.176-94.99l21.93 20.4c-16.526 15.643-32.704 30.063-48.54 43.262L257.404 536.07l-27.471-7.73 45.503-161.71c-18.363 13.28-36.383 24.876-54.06 34.79-.984-10.552-2.51-21.522-4.575-32.908zm32.992-114.436c42.056-17.418 81.167-43.568 117.337-78.453l21.779 22.336c-44 37.423-87.802 66.207-131.418 86.347-1.99-9.78-4.556-19.86-7.698-30.23zm85.35 130.74 163.36 45.967 9.791-34.795 29.302 8.244-9.792 34.796 57.14 16.078-7.216 25.64-57.138-16.078-24.119 85.709c-8.106 28.812-27.424 38.925-57.946 30.336-14.165-3.985-33.296-9.502-57.402-16.547 1.007-9.202 1.94-20.008 2.796-32.416 20.765 7.687 39.57 13.902 56.419 18.643 15.137 4.26 25.044-1.914 29.716-18.516l21.233-75.453-163.36-45.968 7.216-25.64zm11.223 61.263 25.881-10.504c12.222 23.992 22.675 46.302 31.368 66.932l-28.492 11.35c-8.387-22.647-17.973-45.242-28.757-67.778zm8.245-133.259 109.517 30.817 14.84-52.742-93.398-26.283 7.11-25.274 93.402 26.282 14.43-51.278 29.3 8.244-14.429 51.278 94.133 26.488-7.111 25.273-94.134-26.487-14.84 52.743 108.784 30.61-7.216 25.64-247.602-69.672 7.214-25.639zm346.24 85.965 120.505 33.909 11.131-39.558 28.57 8.04-11.132 39.558 120.871 34.01-50.502 179.476-27.105-7.627 4.845-17.216-93.766-26.385-22.468 79.848-28.57-8.04 22.468-79.848-93.4-26.28-4.845 17.215-27.104-7.627 50.502-179.475zm-11.058-85.725 160.062 45.039c-3.374-11.885-7.469-24.5-12.277-37.844l29.5-7.905c6.435 15.516 11.825 30.076 16.167 43.681l-20.204 5.78 161.893 45.553-19.272 68.494-28.57-8.04 11.853-42.122-278.003-78.227-11.853 42.123-28.57-8.04 19.274-68.492zm-.281 229.971 93.4 26.282 12.16-43.221-93.4-26.282-12.16 43.221zm19.17-68.127 93.4 26.282 12.057-42.855-93.4-26.28-12.057 42.853zM811.48 577.351l93.767 26.384 12.16-43.22-93.766-26.385-12.161 43.22zm124.995-84.598-93.767-26.385-12.058 42.855 93.767 26.384 12.058-42.854zm93.152 121.474c37.807-34.158 68.557-73.203 92.25-117.132l-52.377-14.737 7.216-25.64 52.742 14.84 20.51-72.888 27.472 7.73-20.51 72.89 41.755 11.748-7.215 25.639-41.756-11.749-18.138 64.465 14.754-8.892c11.918 17.583 22.735 34.856 32.456 51.822l-23.936 13.424c-8.326-16.307-17.011-31.795-26.057-46.465l-52.976 188.265-27.472-7.73 54.626-194.126c-23.722 36.543-47.288 64.562-70.694 84.066-.222-11.392-1.103-23.236-2.65-35.53zm96.636 142.612c93.405-11.663 178.288-49.703 254.654-114.124l20.165 23.858c-29.52 24.373-60.134 45.136-91.843 62.303 21.622 30.857 41.672 60.74 60.15 89.657l-29.042 17.521c-16.564-29.168-35.4-60.556-56.51-94.167-46.011 22.1-94.333 36.963-144.966 44.59-2.783-7.899-6.985-17.778-12.608-29.638zm9.316-75.248c55.669-11.477 104.83-29.794 147.484-54.948a14263.727 14263.727 0 0 0-68.62-11.797c-9.311-1.564-18.217-2.226-26.715-1.984l-6.029-30.552c11.522-2.554 21.123-6.705 28.8-12.451 20.674-14.471 41.738-31.734 63.191-51.787l-69.59-19.581 7.42-26.372 112.446 31.64c-5.82-17.71-11.354-33.631-16.603-47.756l28.034-8.319c6.047 14.088 12.842 31.153 20.379 51.192l-23.02 7.356 112.08 31.537-7.42 26.372-129.661-36.485c-25.454 22.09-51.069 42.42-76.848 60.99a11512.362 11512.362 0 0 0 83.019 18.222 375.678 375.678 0 0 0 52.19-45.001l22.719 21.808c-62.37 61.505-141.925 103.55-238.665 126.132a952.774 952.774 0 0 0-14.59-28.216z" fill="#1296db"/><path d="M428.796 720.302 61.95 622.51c-17.948-5.12-30.776-25.6-25.656-44.06l20.536-74.752c-12.828 2.56-25.656 2.56-38.968 2.56L2.446 568.211c-10.24 38.911 12.8 77.34 49.265 87.58l304.751 82.459c20.509-2.56 51.314-7.68 72.334-17.92zm95.43 25.6c-15.388 5.12-30.777 10.24-44.117 7.68-10.24-2.56-17.948-12.8-20.537-25.6l-25.656-7.68-23.068 30.72 366.844 97.847c12.8-7.68 28.217-17.92 44.088-25.6l-297.526-77.368zM61.951 485.778 175.358 62.758c5.12-17.92 25.628-30.72 44.089-25.6L1386.71 349.02c-7.68-12.8-7.68-30.72-7.68-38.912L273.832 16.65c7.68 10.24 17.948 20.48 28.217 28.16-20.537-7.68-59.506-20.48-80.042-44.032-35.925-5.12-72.334 15.36-80.042 51.74L28.103 475.51c10.78 5.12 21.049 7.68 33.848 10.24zM1464.164 983.04c-7.68 5.12-17.977 7.68-28.217 5.12L991.649 869.35c-41.585-7.68-105.727-15.36-172.94-10.24l609.53 162.33c5.12 2.56 12.8 2.56 17.948 2.56 2.56-9.728 10.268-25.088 17.977-40.96zm87.721-275.538s10.24 7.68 25.657 15.36l69.774-265.27c10.24-38.912-12.8-77.312-49.266-87.58l-209.32-56.832c23.096 12.8 69.773 35.84 121.598 41.472-12.8 5.12-35.925 10.24-56.945 12.8l134.427 35.84c17.949 5.12 30.777 25.628 25.657 44.088L1481.6 939.492c5.12 20.48 7.68 46.62 2.56 69.66 10.24-10.24 20.536-23.04 25.656-38.911l56.946-211.511c-17.437-12.8-14.877-51.2-14.877-51.2z" fill="#1296db"/><path d="m176.964 391.415 56.71-32.741 31.957 55.348-56.71 32.742-31.957-55.349zm425.513-37.703 32.747 56.71-55.348 31.957-32.743-56.723 55.344-31.944zm351.038-62.924 32.743 56.704-55.363 31.957-32.743-56.704 55.363-31.957zm343.44 543.628a46.468 46.468 0 0 1-35.853 38.579 46.45 46.45 0 0 1-48.846-19.677 46.462 46.462 0 0 1 .894-52.656 46.478 46.478 0 0 1 49.49-18.002c23.68 4.946 38.976 28.018 34.315 51.756zm121.822-374.753-52.761 36.748h105.522l-52.761-36.748zM688.142 515.71l-54.335-69.63-33.888 70.776 88.223-1.146zm0 0" fill="#1296db"/></svg>