<svg viewBox="0 0 1024 1024" width="20" height="20"><path d="M585.143 914.286H219.429c-58.515 0-109.715-51.2-109.715-109.715V219.43c0-58.515 51.2-109.715 109.715-109.715h365.714c58.514 0 109.714 51.2 109.714 109.715v73.142c0 21.943-14.628 36.572-36.571 36.572s-36.572-14.629-36.572-36.572V219.43c0-21.943-14.628-36.572-36.571-36.572H219.429c-21.943 0-36.572 14.629-36.572 36.572V804.57c0 21.943 14.629 36.572 36.572 36.572h365.714c21.943 0 36.571-14.629 36.571-36.572V731.43c0-21.943 14.629-36.572 36.572-36.572s36.571 14.629 36.571 36.572v73.142c0 58.515-51.2 109.715-109.714 109.715zM804.571 650.971c-7.314 0-21.942 0-29.257-7.314-14.628-14.628-14.628-36.571 0-51.2L855.771 512l-80.457-80.457c-14.628-14.629-14.628-36.572 0-51.2s36.572-14.629 51.2 0l102.4 102.4c14.629 14.628 14.629 36.571 0 51.2l-102.4 102.4c0 14.628-14.628 14.628-21.943 14.628z"/><path d="M877.714 548.571H512c-21.943 0-36.571-14.628-36.571-36.571s14.628-36.571 36.571-36.571h365.714c21.943 0 36.572 14.628 36.572 36.571s-14.629 36.571-36.572 36.571z"/></svg>