<svg viewBox="0 0 1649 1024"><path d="M538.59 487.372a578.241 578.241 0 0 1-28.046 63.943c-10.211 15.246-25.514 20.309-48.952 12.714l-197.943-51.284c-22.954-5.064-30.606-20.281-25.486-43.634-12.771-7.623-22.954-20.309-22.954-20.309s12.743-2.56 30.605-7.623l25.486-91.875 238.732 64-7.651 25.343 33.166 10.155 51.512-189.296-320.822-88.831-10.24 30.435 287.713 76.657-28.074 104.561-238.704-63.43 15.303-56.348-33.166-7.623-56.603 209.633c-10.24 43.633 2.56 69.006 43.86 79.16l213.218 56.32c35.697 10.154 64.284 0 79.558-27.904 7.68-15.218 17.863-35.527 30.606-63.943a97.592 97.592 0 0 1-31.118-20.82zm106.61-55.324 25.03 7.111 41.3-148.706 87.21 23.865-41.3 148.706 29.07 8.107 41.33-148.706 86.697 23.864-41.301 148.706 22.954 6.087-7.68 26.909-22.926-6.087-43.377 154.793c-5.091 19.285-17.834 25.884-36.693 20.792l-22.983-6.599.512-26.367c7.14 3.043 14.28 5.063 21.419 7.11 7.14 1.992 12.23-1.535 14.79-11.178l40.818-146.203-35.697-9.614-1.536 5.575c-20.907 73.102-45.397 129.933-73.955 171.035L713.579 656.9c23.95-38.059 45.397-88.32 63.743-151.75l2.048-7.623-29.07-8.107-42.865 154.281c-5.604 19.286-18.347 26.397-39.253 20.822l-24.49-6.6.512-26.396c8.163 3.044 15.302 5.575 22.442 7.595 9.159 2.56 14.79-.996 17.834-10.638l40.818-145.663-35.698-10.154c-21.93 75.092-50.004 132.976-84.194 174.59l-15.787-24.86c30.094-38.599 55.097-90.85 74.467-156.841l-25.002-7.111 6.115-26.397zm86.754 23.865 34.133-123.334-35.698-10.154-34.702 123.334 36.238 10.154zm115.256 31.971L881.4 364.55l-35.726-9.642-34.162 123.334 35.698 9.67zm9.67 227.383 1.565-27.932c21.902 7.11 37.233 12.202 46.933 14.734 12.23 3.555 20.394-1.536 23.95-14.734l91.306-327.336 27.022 7.595-93.326 333.963c-7.14 25.372-22.47 34.503-46.933 27.904l-50.488-14.222zm88.263-338.03 26.026 7.11-71.395 255.287-26.026-7.111 71.395-255.286zm167.82 23.864 117.333 32.483-6.628 23.325a1396.21 1396.21 0 0 1-71.935 106.096c13.255 42.098 16.327 77.653 10.211 107.093-5.12 17.749-12.23 29.44-22.47 35.526-13.74 7.111-34.134 7.111-60.672-.512l-1.536-32.483c8.675 3.556 13.767 5.575 15.815 6.087 13.255 3.044 22.442 3.044 27.534.512 5.603-2.56 9.7-8.135 11.747-17.265 7.652-27.904 4.068-61.923-11.235-102.513a1247.846 1247.846 0 0 0 71.395-106.097l-58.14-16.213-92.813 332.939-29.099-8.135L1112.963 401.1zm123.448 295.393c-27.022 31.971-54.584 57.343-83.654 77.652l-19.37-23.864c29.07-19.285 56.091-43.634 81.065-73.102l21.96 19.314zm-42.837 110.648 1.508-30.464c17.863 6.087 30.606 10.155 38.77 12.686 7.679 2.02 12.23-1.536 15.302-11.178l32.142-115.2-96.426-26.908 8.192-28.927 96.426 26.908 13.738-48.725-54.584-15.218 7.68-27.42 135.167 37.547-7.68 27.42-50.489-13.71-13.767 48.724 92.33 25.373-8.163 28.927-92.33-25.372-34.162 122.31c-6.115 22.87-19.91 30.976-40.817 25.4l-42.837-12.202zm175.472-346.166c12.743 49.237 40.277 94.435 81.607 136.532l-24.462 20.31a316.783 316.783 0 0 1-79.587-132.465c-43.378 35.527-89.798 60.387-139.775 74.609l-9.67-29.952c54.043-15.73 102-41.614 142.789-77.14l29.098 8.106zm-17.863 251.247c12.743 39.595 21.419 74.098 26.027 102.513l-29.582 10.155c-4.096-29.44-12.231-64.455-23.467-105.073l27.022-7.595z" fill="#ff5252"/><path d="M428.796 720.302 61.95 622.51c-17.948-5.12-30.776-25.6-25.656-44.06l20.536-74.752c-12.828 2.56-25.656 2.56-38.968 2.56L2.446 568.211c-10.24 38.911 12.8 77.34 49.265 87.58l304.751 82.459c20.509-2.56 51.314-7.68 72.334-17.92zm95.43 25.6c-15.388 5.12-30.777 10.24-44.117 7.68-10.24-2.56-17.948-12.8-20.537-25.6l-25.656-7.68-23.068 30.72 366.844 97.847c12.8-7.68 28.217-17.92 44.088-25.6l-297.526-77.368zM61.951 485.778 175.358 62.758c5.12-17.92 25.628-30.72 44.089-25.6L1386.71 349.02c-7.68-12.8-7.68-30.72-7.68-38.912L273.832 16.65c7.68 10.24 17.948 20.48 28.217 28.16-20.537-7.68-59.506-20.48-80.042-44.032-35.925-5.12-72.334 15.36-80.042 51.74L28.103 475.51c10.78 5.12 21.049 7.68 33.848 10.24zM1464.164 983.04c-7.68 5.12-17.977 7.68-28.217 5.12L991.649 869.35c-41.585-7.68-105.727-15.36-172.94-10.24l609.53 162.33c5.12 2.56 12.8 2.56 17.948 2.56 2.56-9.728 10.268-25.088 17.977-40.96zm87.721-275.538s10.24 7.68 25.657 15.36l69.774-265.27c10.24-38.912-12.8-77.312-49.266-87.58l-209.32-56.832c23.096 12.8 69.773 35.84 121.598 41.472-12.8 5.12-35.925 10.24-56.945 12.8l134.427 35.84c17.949 5.12 30.777 25.628 25.657 44.088L1481.6 939.492c5.12 20.48 7.68 46.62 2.56 69.66 10.24-10.24 20.536-23.04 25.656-38.911l56.946-211.511c-17.437-12.8-14.877-51.2-14.877-51.2z" fill="#ff5252"/><path d="m176.964 391.415 56.71-32.741 31.957 55.348-56.71 32.742-31.957-55.349zm425.513-37.703 32.747 56.71-55.348 31.957-32.743-56.723 55.344-31.944zm351.038-62.924 32.743 56.704-55.363 31.957-32.743-56.704 55.363-31.957zm343.44 543.628a46.468 46.468 0 0 1-35.853 38.579 46.45 46.45 0 0 1-48.846-19.677 46.462 46.462 0 0 1 .894-52.656 46.478 46.478 0 0 1 49.49-18.002c23.68 4.946 38.976 28.018 34.315 51.756zm121.822-374.753-52.761 36.748h105.522l-52.761-36.748zM688.142 515.71l-54.335-69.63-33.888 70.776 88.223-1.146zm0 0" fill="#ff5252"/></svg>