<svg viewBox="0 0 1024 1024"><path d="M512 930.133c216.79 0 392.533-175.744 392.533-392.533S728.79 145.067 512 145.067 119.467 320.81 119.467 537.6 295.21 930.133 512 930.133z" fill="#F0F4F7"/><path d="M622.374 306.402c.506-1.988.76-4.03.758-6.08 0-13.59-11.027-24.606-24.63-24.606a24.634 24.634 0 0 0-24.183 19.938 16.762 16.762 0 0 0-11.273-4.337c-.1 0-.198.013-.3.013a30.219 30.219 0 0 0-30.033-26.797 30.208 30.208 0 0 0-30.14 28.011 18.688 18.688 0 0 0-31.384 13.698l-35.989 6.983h218.818l-31.644-6.823z" fill="#FFF"/><path d="M153.6 793.6c-18.852 0-34.133-68.768-34.133-153.6s15.28-153.6 34.133-153.6c.081 0 25.201 1.005 40-16.062s19.2-30.903 19.2-52.2c0-73.082 31.32-125.014 60.267-135.068 8.339-1.468 21.333 1.745 34.133-9.289s17.067-19.993 17.067-34.843C324.267 158.82 351.01 93.87 384 93.87s59.733 64.95 59.733 145.067c0 14.85-1.423 22.033 11.377 33.066 12.8 11.034 31.488 9.6 39.823 11.066 28.948 10.056 51.2 70.517 51.2 143.599a215.856 215.856 0 0 0 4.977 42.666s9.568 25.263 23.467 11.734c13.899-13.53 19.477-31.755 21.867-48.792 6.792-48.441 21.39-82.41 35.023-82.41 13.907 0 25.87 35.34 31.242 86.54 1.581 15.075 4.694 25.052 13.912 37.547a30.507 30.507 0 0 0 22.942 12.446h.17c13.841 0 25.756 35.006 31.183 85.99 1.067 10.08 2.095 16.214 11.307 24.591 9.212 8.378 25.53 8.886 25.53 8.886H768c4.608 0 9.077 3.84 13.286 11.4a125.005 125.005 0 0 1 10.85 31.09c6.447 27.393 9.997 63.824 9.997 102.576 0 14.543-.505 28.898-1.493 42.667H153.6z" fill="#E6EEF4"/><path d="M710.334 793.6H462.227c-.994-13.766-1.493-28.12-1.493-42.667 0-38.747 3.55-75.178 9.997-102.577a124.92 124.92 0 0 1 10.85-31.089c4.209-7.56 8.678-11.4 13.286-11.4h.248s16.322-.517 25.53-8.888c9.207-8.371 10.24-14.506 11.306-24.59 5.427-50.985 17.344-85.989 31.183-85.989a35.35 35.35 0 0 0 7.04-2.163 13.141 13.141 0 0 0 4.405-3.17c13.899-13.53 19.478-31.753 21.867-48.792 6.795-48.437 21.39-82.408 35.023-82.408 13.905 0 25.869 35.34 31.24 86.543 1.583 15.072 4.694 25.05 13.912 37.546a30.522 30.522 0 0 0 10.071 8.8 30.524 30.524 0 0 0 12.87 3.644h.173c13.84 0 25.756 35.006 31.183 85.988 1.067 10.08 2.097 16.214 11.307 24.591 9.21 8.378 25.528 8.888 25.528 8.888H768c4.608 0 9.077 3.84 13.286 11.4a125.092 125.092 0 0 1 10.85 31.09c6.447 27.4 9.997 63.83 9.997 102.576 0 14.545-.505 28.898-1.493 42.667h-90.306z" fill="#DFE9F1"/><path d="M324.267 827.733c-23.121-8.719-34.774 0-68.267 0-56.555 0-102.4-19.102-102.4-42.666S199.445 742.4 256 742.4h546.133a34.143 34.143 0 0 1 24.137 9.997 34.142 34.142 0 0 1 0 48.273 34.142 34.142 0 0 1-24.137 9.997s-33.066 0-58.666 6.4-43.734 24.99-43.734 24.99-80.23 88.076-179.2 88.076c-81.154 0-149.708-28.258-172.047-67.526-4.552-7.994-1.098-26.155-24.22-34.874z" fill="#D3E0ED"/><path d="M886.125 279.942a2.13 2.13 0 0 1 3 .316 2.13 2.13 0 0 1-.316 3l-.037.03-.106.085-.41.328a378.613 378.613 0 0 1-7.511 5.794 2.133 2.133 0 0 1-2.565-3.41 374.643 374.643 0 0 0 7.416-5.72c.177-.139.31-.246.397-.318l.1-.079.023-.02.009-.006zm-127.906 7.454c5.755-3.85 13.154-5.397 20.501-4.533a2.135 2.135 0 0 1-.497 4.239c-6.473-.762-12.826.625-17.632 3.84a2.133 2.133 0 1 1-2.372-3.546zm36.524 4.267a2.133 2.133 0 0 1 3.015-.139c4.753 4.335 8.55 10.27 10.628 17.858a2.133 2.133 0 1 1-4.115 1.127c-1.871-6.833-5.25-12.058-9.389-15.832a2.133 2.133 0 0 1-.139-3.014zm70.046 6.716a2.133 2.133 0 0 1-.552 2.965 420.433 420.433 0 0 1-17.058 11.11 2.133 2.133 0 0 1-2.238-3.633 415.27 415.27 0 0 0 16.883-10.997 2.133 2.133 0 0 1 2.965.555zm-114.743 5.318a2.136 2.136 0 0 1 1.984 2.274c-.188 2.754.094 5.833.968 9.229.896 3.477 2.108 6.391 3.574 8.817a2.133 2.133 0 1 1-3.653 2.206c-1.708-2.831-3.067-6.14-4.05-9.956-.978-3.79-1.317-7.326-1.097-10.586a2.135 2.135 0 0 1 2.274-1.984zm80.326 16.038a2.133 2.133 0 0 1-.885 2.885c-6.108 3.236-12.337 6.233-18.496 8.766a2.13 2.13 0 0 1-1.376.083c-.674 5.585-2.025 11.663-4.166 18.244a2.133 2.133 0 1 1-4.058-1.318c2.261-6.953 3.586-13.25 4.151-18.919a2.135 2.135 0 0 1 3.192-1.634 2.125 2.125 0 0 1 .636-.403c6.003-2.468 12.106-5.402 18.118-8.589a2.133 2.133 0 0 1 2.884.885zm-37.359 15.43a2.133 2.133 0 0 1-1.634 2.537c-7.494 1.62-14.656 2.076-20.988.747a2.133 2.133 0 0 1 .877-4.177c5.54 1.163 12.054.806 19.209-.74a2.133 2.133 0 0 1 2.536 1.634zm3.785 30.471a2.133 2.133 0 0 1 .99 2.85 213.875 213.875 0 0 1-9.573 17.507 2.133 2.133 0 0 1-3.648-2.21 209.519 209.519 0 0 0 9.38-17.157 2.133 2.133 0 0 1 2.85-.99zm-20.115 34.178a2.133 2.133 0 0 1 .516 2.972 377.17 377.17 0 0 1-12.006 16.077 2.133 2.133 0 0 1-3.354-2.639 368.614 368.614 0 0 0 11.87-15.895 2.135 2.135 0 0 1 2.974-.515zm-24.43 31.465a2.133 2.133 0 0 1 .23 3.008 564.467 564.467 0 0 1-13.253 14.867 2.133 2.133 0 1 1-3.136-2.893 555.125 555.125 0 0 0 13.152-14.756 2.133 2.133 0 0 1 3.008-.226zm-26.766 29.28a2.133 2.133 0 0 1 .032 3.016 790.903 790.903 0 0 1-7.215 7.27 2.131 2.131 0 1 1-3.008-3.024 756.326 756.326 0 0 0 7.174-7.23 2.131 2.131 0 0 1 3.017-.032zM674.133 491.275c6.72-6.294 25.6-4.694 25.6-4.694s-3.2 8.534-5.546 17.067-.495 12.676-3.84 17.067c-8.534 11.2-24.747 10.666-24.747 10.666s1.6-7.253 4.267-17.066-2.454-16.747 4.266-23.04z" fill="#96ACCC"/><path d="M644.49 372.544a13.094 13.094 0 0 0-2.96 8.275l-27.13 7.315h139.117l-25.105-5.775c.55-2.129.827-4.317.825-6.515 0-14.346-11.643-25.977-26.005-25.977a25.988 25.988 0 0 0-25.986 25.263 8.572 8.572 0 0 0-4.909-1.534 8.58 8.58 0 0 0-5.662 2.12 13.097 13.097 0 0 0-22.184-3.172zM119.468 691.2l121.6 9.6 168.533-9.6 67.2 25.6 36.267 21.333-78.934 18.134-52.266-10.667-123.734 10.667-130.133-16-8.533-49.067z" fill="#FFF"/><path d="m127.147 738.56 130.986 16.64L383.467 744l51.733 11.2L512 736v52.267l-73.813 9.6-34.56-15.467-69.547 2.667-10.88 3.2-49.707-5.867-132.693 3.2s-4.693-13.946-8.107-25.707c-3.413-11.76-5.546-21.333-5.546-21.333z" fill="#F0F4F7"/><path d="M343.467 736c50.662 0 91.733-9.073 91.733-20.267s-41.07-20.266-91.733-20.266-91.734 9.073-91.734 20.266S292.804 736 343.467 736z" fill="#E6EEF4"/><path d="M399.51 607.04a66.63 66.63 0 0 1 15.114 22.24c5.914 14.08 12.538 28.713 17.89 31.53 5.353 2.819 7.883 21.404-17.18 17.462-25.062-3.942-15.825-71.232-15.825-71.232z" fill="#FFF"/><path d="M401.538 612.715a68.998 68.998 0 0 1 14.833 35.948c1.807 18.407 6.257 28.442 10.989 27.768a26.997 26.997 0 0 1-12.78-.053c-7.5-1.647-16.071-63.424-13.042-63.663z" fill="#F0F4F7"/><path d="M396.964 717.056a73.406 73.406 0 0 0 30.16 2.325c14.72-2.08 18.617-29.327-1.381-32.126-15.503-2.176-12.856-25.956-15.714-47.857-2.859-21.9-13.995-40.209-15.71-49.122-1.715-8.913 9.069-19.697 7.71-38.532-1.391-19.339-13.44-22.355-17.722-21.491-4.281.864-7.699 5.103-13.128 7.402-5.43 2.3-13.423-1.435-23.706 3.454s-20.004 16.1-20.004 16.1c-4.286 5.464.853 22.716-2.001 31.341-2.855 8.625-14.28 83.676-13.995 104.666.286 20.99 13.709 35.659 42.564 39.396 28.856 3.738 41.428-1.293 42.36-9.489.595-5.212 4.064-23.58-16.64-26.741-10.304-1.579-15.708-2.874-15.708-2.874" fill="#FFF"/><path d="M381.532 533.65s2.05-3.367 3.682-3.401c2.8-.056 5.76 3.479 5.76 3.479s-9.35 3.697-9.442-.079zm3.776-21.494c-4.382-1.144-4.86 4.448-4.86 4.448s-6.165-.668-5.547 3.718c.762 5.474 12.44 5.212 12.44 5.212s3.313-11.979-2.033-13.378z" fill="#96ACCC"/><path d="M329.495 560.96s-12.987-2.854-14.41 7.078c-1.423 9.933 8.92 16.02 16.333 1.28" fill="#FFF"/><path d="M329.777 634.133s-3.093 38.187 2.347 47.755c4.906 8.627 22.745 10.961 35.744 9.877a53.444 53.444 0 0 0 12.827-2.658c12.946-4.601 6.04-13.226 0-18.972-6.039-5.745-7.974-22.071-18.331-30.933" fill="#F0F4F7"/><path d="M359.275 547.674a1.3 1.3 0 0 0-1.114.66l-.02.03a10.276 10.276 0 0 1-6.886 4.954h-.04a1.286 1.286 0 0 0-1.086 1.067h-.023l-.867 2.3s.728-.03 1.797-.188l.121-.655.235-1.246v1.846c.401-.067.83-.156 1.28-.259v-1.593l.137.968.078.572a11.962 11.962 0 0 0 5.09-2.428 8.715 8.715 0 0 0 2.573-4.746 1.271 1.271 0 0 0-.373-.905 1.271 1.271 0 0 0-.902-.377z" fill="#96ACCC"/><path d="M403.84 637.673c-7.68-7.482-14.434 1.184-14.434 1.184s-13.227-10.428-18.133.554c-6.138 13.7 25.175 35.823 25.175 35.823s15.251-29.905 7.392-37.561z" fill="#F0F4F7"/><path d="M329.86 632.779s10.71 32.584 16.152 42.154c6.903 12.135 20.198 18.155 33.137 13.558 12.938-4.598 6.04-11.791 0-17.543-6.04-5.751-8.691-25.147-19.049-34.011" fill="#FFF"/><path d="m516.267 878.577 38.4-20.267 5.69 8.534v17.493L544 896l-10.31-11.665-17.423 2.43v-8.188z" fill="#F0F4F7"/><path d="m524.8 864.356 29.867-6.756v21.333L544 885.69l-10.31-8.534-17.423 1.777 8.533-14.577z" fill="#FFF"/><path d="m565 808.006 34.834-14.116.012 30.104-4.614 9.836-30.22.013-.011-25.837z" fill="#F0F4F7"/><path d="M586.133 793.6h13.334l-8 14.933h-26.134l20.8-14.933zm284.267-96-70.564 9.6-84.495-9.6-33.692 25.6-18.182 21.333 39.573 18.134L729.244 752l62.035 10.667L841.387 752l13.796-25.869L870.4 697.6z" fill="#FFF"/><path d="m842.24 748.672-59.947 8.416-57.342-5.658-23.68 5.664-37.804-12.56v29.277l36.443 4.856 15.817-7.823 31.823 1.348 4.98 1.62 22.745-2.968 61.847 2.967s-2.987-3.793 0-10.078a93.75 93.75 0 0 0 5.118-15.061z" fill="#F0F4F7"/></svg>