<svg viewBox="0 0 1024 1024"><path d="M36.506 512c0 262.656 211.814 473.549 475.494 473.549S987.443 774.605 987.443 512 775.68 38.502 512 38.502 36.506 249.446 36.506 512z" fill="#FFF"/><path d="M36.506 512c0 262.656 211.814 475.648 475.494 475.648S987.443 774.656 987.443 512 775.68 36.352 512 36.352 36.506 249.446 36.506 512z" fill="#FFF"/><path d="M512 996.3C243.968 996.3 25.702 778.907 25.702 512 25.702 242.995 243.968 25.6 512 25.6S998.246 242.995 998.246 512c0 266.906-218.265 484.3-486.246 484.3zm0-949.196C254.771 47.104 47.309 255.898 47.309 512S254.77 976.896 512 976.896 976.64 768.154 976.64 512 769.178 47.104 512 47.104z" fill="#EFEFEF"/><path d="M872.192 838.963A486.554 486.554 0 0 1 511.846 998.4a484.915 484.915 0 0 1-360.601-160.256c-.256-.614 0-.87.307-1.434 1.126-3.379 2.253-6.758 3.942-10.137-.307-.256 0-.512 0-.512a69.632 69.632 0 0 1 4.813-10.445c-.307-.307 0-.307.256-.563 39.527-81.818 131.891-127.693 208.691-133.018l13.824-.819c14.132-.87 28.263-1.69 42.394-2.253 5.632-.307 11.571-.307 17.51-.563a1948.076 1948.076 0 0 1 99.636-.87c15.001.307 29.952.563 45.465 1.126l14.695.87c14.95.512 30.208 1.383 46.08 2.253 1.945 0 3.89.256 5.888.256 86.118 5.632 169.164 54.272 208.128 134.656 1.69 3.43 3.379 6.81 4.761 10.445.307.307.307.307.307.563 1.434 3.072 2.56 6.451 3.687 9.83a2.15 2.15 0 0 1 .512 1.434z" fill="#95A1B9"/><path d="M514.15 761.702c-49.715 0-88.576-25.856-88.576-75.315V600.27c0-49.51 38.861-88.269 88.576-88.269s88.576 38.758 88.576 88.269v86.118c0 49.46-38.912 75.264-88.576 75.264z" fill="#F8E9E9"/><path d="M524.954 686.387a232.448 232.448 0 0 0 79.974-58.112v-32.307H425.472v94.72c15.155 4.3 67.02 8.602 99.43-4.3z" fill="#B8B8B8"/><path d="M360.704 471.142c0 101.172 66.97 182.938 151.296 182.938s151.296-81.766 151.296-182.938S596.224 288.205 512 288.205 360.704 369.97 360.704 471.142z" fill="#FFE8E8"/><path d="M578.97 234.394c-82.125-17.255-142.644 17.203-166.4 32.256-30.26 19.404-49.716 45.21-62.67 75.366s-15.154 83.917 6.452 96.82 58.368-2.151 95.13-32.257 140.492-49.51 140.492-49.51-15.155 58.112 66.97 107.622c25.958 15.053 30.26-64.563 25.958-99.02-4.352-34.458-23.808-114.074-105.932-131.277z" fill="#7E8289"/><path d="m603.392 629.606 45.414 51.661c0 21.504-13.004 45.159-34.61 71.015-19.457 23.654-34.56 40.908-47.514 51.66 0 2.15 0 2.15-2.202 2.15s-2.15-2.15-2.15-4.3c-2.15-8.602-6.452-17.254-17.255-23.706s-21.657-12.902-32.46-17.203c21.606-10.752 41.062-25.805 56.217-47.36 15.104-21.504 28.109-49.51 34.56-83.968z" fill="#CBD2DA"/><path d="m426.189 631.757-43.213 49.51c2.15 19.354 12.954 43.008 34.56 71.015 19.456 23.654 34.56 40.908 47.565 53.76 2.15 2.201 2.15 2.201 4.3 2.201v-6.451c2.151-10.752 6.503-17.254 17.306-23.706a236.544 236.544 0 0 1 32.41-17.203 133.018 133.018 0 0 1-56.218-47.36 260.608 260.608 0 0 1-36.71-81.766z" fill="#CBD2DA"/><path d="M511.846 25.702C243.866 25.702 25.6 243.046 25.6 511.898c0 33.484 3.38 65.792 9.882 97.28a483.482 483.482 0 0 0 115.763 228.915A484.915 484.915 0 0 0 511.846 998.4a486.554 486.554 0 0 0 360.346-159.437A483.38 483.38 0 0 0 988.518 609.23a479.898 479.898 0 0 0 9.882-97.28c0-268.903-218.266-486.247-486.554-486.247zM56.678 418.56A462.694 462.694 0 0 1 440.986 52.429c15.513-2.253 31.078-3.943 46.848-4.813 7.936-.256 16.128-.512 24.064-.512 7.884 0 16.076.256 23.961.512 15.821.87 31.335 2.56 46.9 4.813A463.053 463.053 0 0 1 967.372 418.56c6.144 30.054 9.267 61.286 9.267 93.338 0 48.384-7.322 94.515-20.89 138.086a428.186 428.186 0 0 1-35.02 83.507 439.091 439.091 0 0 1-57.856 83.251c-7.066 8.192-14.439 16.026-22.016 23.604a466.125 466.125 0 0 1-329.012 134.45 463.616 463.616 0 0 1-351.232-159.743 466.074 466.074 0 0 1-67.532-101.786 462.234 462.234 0 0 1-45.722-201.37c0-32.05 3.072-63.283 9.318-93.337z" fill="#EFEFEF"/></svg>