<svg viewBox="0 0 1024 1024"><path d="M1023.915 481.86 542.157 1.075H.477L1023.916 1023.42z" fill="#FF5252"/><path d="m590.61 217.72-51.542-51.405L390.16 315.273l-38.57-38.503 148.906-148.958-51.422-51.285 31.437-31.437 141.534 141.176-31.437 31.453zm-45.569 76.646c28.245-28.263 59.512-43.008 93.764-44.288 34.253-1.263 64.939 11.64 92.075 38.69 25.805 25.737 37.99 55.04 36.574 87.893-1.4 32.87-15.582 62.772-42.513 89.703-28.092 28.109-59.085 42.752-92.945 43.946-33.86 1.195-64.051-11.434-90.556-37.888-25.89-25.804-38.434-55.261-37.632-88.354.785-33.092 14.54-62.976 41.233-89.702zm42.564 38.263c-17.544 17.545-27.648 36.113-30.327 55.706-2.663 19.592 3.396 36.762 18.159 51.49 15.087 15.036 32.153 21.402 51.217 19.115 19.063-2.321 37.615-12.459 55.62-30.481 18.773-18.774 29.543-37.718 32.29-56.764 2.73-19.046-3.31-35.977-18.159-50.773-15.07-15.053-32.546-21.3-52.394-18.774-19.832 2.543-38.64 12.698-56.406 30.481zm189.662 243.15-62.873 62.873-38.486-38.366 180.36-180.395 62.123 61.986c44.937 44.8 48.384 86.238 10.36 124.28-18.483 18.483-40.073 26.521-64.768 24.132-24.696-2.39-47.002-13.978-66.901-34.748l-19.815-19.763zm87.672-87.706-58.215 58.231 16.674 16.64c22.614 22.545 43.742 24.013 63.386 4.37 19.166-19.167 17.562-39.937-4.83-62.26l-17.015-16.981z" fill="#FFF"/></svg>