<svg viewBox="0 0 1649 1024" version="1.1" xmlns="http://www.w3.org/2000/svg">
    <path d="M216.800249 368.510935c40.194131-21.102193 81.252756-52.763396 123.175876-94.990916l21.930159 20.399639c-16.526459 15.6437-32.704685 30.063715-48.539548 43.262478l-55.963244 198.887343-27.471448-7.73053 45.502858-161.710421c-18.362597 13.280342-36.383049 24.876747-54.060137 34.79043-0.983819-10.551705-2.510687-21.522264-4.574516-32.908023z m32.992038-114.437175c42.055838-17.417741 81.166307-43.568095 117.336275-78.452281L388.90774 197.957099c-44.000342 37.422878-87.802216 66.206897-131.417798 86.347186-1.989555-9.780966-4.556252-19.860243-7.697655-30.230525z m85.349973 130.740813l163.359049 45.966764 9.791924-34.795301 29.301498 8.244356-9.791924 34.795301 57.139444 16.078383-7.215486 25.640181-57.138226-16.078383-24.118183 85.709165c-8.106768 28.812024-27.423962 38.925394-57.946712 30.336457-14.164319-3.985199-33.29522-9.502136-57.401227-16.547158 1.006954-9.202606 1.939634-20.00879 2.795606-32.416114 20.764918 7.686697 39.569503 13.901317 56.418625 18.642644 15.13718 4.260376 25.044775-1.914064 29.716699-18.516014l21.232476-75.453337-163.359049-45.967981 7.215486-25.638963z m11.222602 61.262231l25.881265-10.504219c12.22225 23.992771 22.675329 46.30282 31.367762 66.932585l-28.491795 11.35045c-8.386816-22.647325-17.972966-45.242293-28.757232-67.778816z m8.245574-133.258806l109.516861 30.817407 14.840086-52.742696-93.398297-26.283073 7.110773-25.273684 93.400732 26.281855 14.429755-51.277926 29.301498 8.244357-14.429755 51.277926 94.132509 26.487629-7.110773 25.273684-94.133726-26.487629-14.840086 52.742697 108.783867 30.610416-7.215486 25.64018-247.602226-69.67218 7.214268-25.638963zM700.850284 398.782859l120.504466 33.908889 11.131282-39.557327 28.569722 8.0398-11.131282 39.557327 120.870963 34.011168-50.502316 179.475177-27.104951-7.627034 4.844822-17.21562-93.766011-26.385351-22.468338 79.847648-28.569722-8.0398 22.468338-79.847648-93.400733-26.280637-4.844822 17.215619-27.103734-7.627034 50.502316-179.475177z m-11.058226-85.724995l160.061793 45.038954c-3.373964-11.884975-7.468747-24.499291-12.277041-37.844166l29.499966-7.904647c6.435006 15.515853 11.825313 30.075891 16.167268 43.681332l-20.203605 5.77872 161.89306 45.553998-19.272142 68.493545-28.569722-8.0398 11.8521-42.121588-278.003215-78.227025-11.8521 42.122806-28.569722-8.0398 19.27336-68.492329z m-0.281265 229.971406l93.399515 26.281855 12.16137-43.22108-93.400733-26.281855-12.160152 43.22108z m19.169865-68.127049l93.399514 26.281855 12.057874-42.854583-93.399514-26.280637-12.057874 42.853365z m102.799372 102.448704l93.767229 26.384133 12.160152-43.219862-93.766011-26.385351-12.16137 43.22108z m124.994968-84.597498l-93.76723-26.385351-12.057874 42.854583 93.76723 26.384133 12.057874-42.853365zM1029.62734 614.227101c37.806421-34.158497 68.556861-73.203215 92.250102-117.131719l-52.377417-14.737808 7.215486-25.64018 52.742697 14.841303 20.51044-72.889075 27.471448 7.73053-20.51044 72.889075 41.755092 11.748604-7.214269 25.638963-41.756309-11.748604-18.138559 64.464514 14.754854-8.892119c11.91785 17.583334 22.734992 34.856181 32.455077 51.822193l-23.935543 13.424019c-8.325936-16.307291-17.011063-31.795139-26.056599-46.464761l-52.976476 188.265018-27.471448-7.729313 54.625103-194.126535c-23.721246 36.542554-47.287857 64.561922-70.693745 84.065408-0.221603-11.391848-1.103144-23.235424-2.649494-35.529513z m96.635891 142.612395c93.404385-11.663372 178.288019-49.703572 254.653336-114.124252l20.16586 23.857617c-29.520666 24.372661-60.134735 45.136361-91.843425 62.303277 21.622107 30.856371 41.672295 60.739881 60.150564 89.656618l-29.04215 17.521237c-16.564205-29.167562-35.400447-60.556024-56.511163-94.166602-46.010597 22.099405-94.332195 36.962625-144.964794 44.58966-2.783429-7.898559-6.98536-17.77815-12.608228-29.637555z m9.315843-75.24878c55.668585-11.47708 104.830326-29.793408 147.484004-54.947767a14263.72703 14263.72703 0 0 0-68.620176-11.797308c-9.310973-1.563396-18.216485-2.225769-26.715319-1.983467l-6.028329-30.551972c11.522131-2.554521 21.122892-6.705313 28.799848-12.451158 20.673598-14.471153 41.738045-31.734259 63.190906-51.786882l-69.590601-19.581413 7.420042-26.371957 112.446402 31.640504c-5.820119-17.711182-11.354102-33.631277-16.603167-47.756633l28.033978-8.31863c6.04781 14.08761 12.842007 31.153465 20.37894 51.191477l-23.01991 7.356728 112.079905 31.537008-7.420043 26.371957-129.660804-36.485327c-25.453888 22.089665-51.068499 42.4199-76.847486 60.989489a11512.362007 11512.362007 0 0 0 83.018273 18.222573 375.677717 375.677717 0 0 0 52.191125-45.001208l22.717946 21.8084c-62.369027 61.504533-141.924452 103.549413-238.665056 126.132204a952.774164 952.774164 0 0 0-14.590478-28.216618z" fill="#1296db" />
    <path d="M428.795831 720.301619L61.951398 622.51057c-17.94827-5.11995-30.77659-25.599751-25.65664-44.060016l20.536689-74.751273c-12.82832 2.559975-25.656639 2.559975-38.96851 2.559975l-15.416739 61.951398c-10.2399 38.911622 12.799876 77.339693 49.265299 87.579592l304.750815 82.459643c20.508245-2.559975 51.313279-7.679925 72.333519-17.919826z m95.430183 25.599751c-15.388295 5.11995-30.77659 10.2399-44.116904 7.679926-10.2399-2.559975-17.94827-12.799876-20.536689-25.599751l-25.65664-7.679926-23.06822 30.719702 366.844434 97.847937c12.799876-7.679925 28.216615-17.919826 44.08846-25.599751l-297.525996-77.368137zM61.951398 485.779455L175.358295 62.75779c5.11995-17.919826 25.628195-30.719701 44.08846-25.599751L1386.710074 349.019896c-7.679925-12.799876-7.679925-30.719701-7.679926-38.911622L273.832004 16.649794c7.679925 10.2399 17.94827 20.479801 28.216615 28.159726-20.536689-7.679925-59.505199-20.479801-80.041889-44.031572-35.924984-5.11995-72.333519 15.359851-80.041888 51.739941L28.102838 475.51111c10.78034 5.11995 21.048684 7.679925 33.84856 10.239901zM1464.163543 983.040398c-7.679925 5.11995-17.976714 7.679925-28.216615 5.11995l-444.297902-118.811289c-41.585373-7.679925-105.726972-15.359851-172.940541-10.2399l609.530074 162.330866c5.11995 2.559975 12.799876 2.559975 17.94827 2.559975 2.559975-9.727905 10.268345-25.087756 17.976714-40.959602z m87.721814-275.538654s10.2399 7.679925 25.656639 15.35985l69.773544-265.270309c10.2399-38.911622-12.799876-77.311248-49.265299-87.579593l-209.320631-56.831448c23.096664 12.799876 69.773544 35.839652 121.598817 41.471597-12.799876 5.11995-35.924984 10.2399-56.945224 12.799875l134.427138 35.839652c17.94827 5.11995 30.77659 25.628195 25.656639 44.08846l-131.867162 492.112549c5.11995 20.479801 7.679925 46.619991 2.559975 69.659767 10.2399-10.2399 20.536689-23.039776 25.656639-38.911621l56.945224-211.510833c-17.436275-12.799876-14.8763-51.199502-14.876299-51.199502z" fill="#1296db" />
    <path d="M176.964092 391.415172l56.709631-32.741212 31.95708 55.348356-56.709632 32.741213-31.957079-55.348357zM602.476881 353.712247l32.747301 56.709632-55.348357 31.957079-32.74243-56.723025 55.343486-31.943686z m351.038402-62.924252l32.74243 56.703544-55.362967 31.957079-32.742431-56.703543 55.362968-31.95708zM1296.954655 834.416323a46.468414 46.468414 0 0 1-35.852176 38.578379 46.45015 46.45015 0 0 1-48.846383-19.676386 46.462326 46.462326 0 0 1 0.893717-52.656247 46.478155 46.478155 0 0 1 49.489275-18.002188c23.681065 4.945883 38.976533 28.01815 34.315567 51.756442z m121.821907-374.75356l-52.76096 36.748329h105.521921l-52.760961-36.748329z m-730.634349 56.047258l-54.335315-69.630782-33.888191 70.776542 88.223506-1.14576z m0 0" fill="#1296db" />
</svg>