<svg viewBox="0 0 1024 1024" version="1.1" xmlns="http://www.w3.org/2000/svg"  width="20" height="20">
    <path d="M585.142857 914.285714H219.428571c-58.514286 0-109.714286-51.2-109.714285-109.714285V219.428571c0-58.514286 51.2-109.714286 109.714285-109.714285h365.714286c58.514286 0 109.714286 51.2 109.714286 109.714285v73.142858c0 21.942857-14.628571 36.571429-36.571429 36.571428s-36.571429-14.628571-36.571428-36.571428V219.428571c0-21.942857-14.628571-36.571429-36.571429-36.571428H219.428571c-21.942857 0-36.571429 14.628571-36.571428 36.571428v585.142858c0 21.942857 14.628571 36.571429 36.571428 36.571428h365.714286c21.942857 0 36.571429-14.628571 36.571429-36.571428v-73.142858c0-21.942857 14.628571-36.571429 36.571428-36.571428s36.571429 14.628571 36.571429 36.571428v73.142858c0 58.514286-51.2 109.714286-109.714286 109.714285z"  />
    <path d="M804.571429 650.971429c-7.314286 0-21.942857 0-29.257143-7.314286-14.628571-14.628571-14.628571-36.571429 0-51.2L855.771429 512l-80.457143-80.457143c-14.628571-14.628571-14.628571-36.571429 0-51.2s36.571429-14.628571 51.2 0l102.4 102.4c14.628571 14.628571 14.628571 36.571429 0 51.2l-102.4 102.4c0 14.628571-14.628571 14.628571-21.942857 14.628572z"  />
    <path d="M877.714286 548.571429H512c-21.942857 0-36.571429-14.628571-36.571429-36.571429s14.628571-36.571429 36.571429-36.571429h365.714286c21.942857 0 36.571429 14.628571 36.571428 36.571429s-14.628571 36.571429-36.571428 36.571429z"  />
</svg>