<svg viewBox="0 0 1649 1024" version="1.1" xmlns="http://www.w3.org/2000/svg">
    <path d="M538.590319 487.372328a578.241489 578.241489 0 0 1-28.045949 63.94249c-10.211456 15.246074-25.514419 20.309136-48.952413 12.714543l-197.942965-51.284835c-22.954443-5.063062-30.605925-20.280692-25.485974-43.633353-12.771431-7.623037-22.954443-20.309136-22.954444-20.309136s12.742987-2.559975 30.605925-7.623037l25.485974-91.874663 238.731902 63.999378-7.651481 25.343754 33.165899 10.154568 51.512388-189.295938L266.237412 170.674963 255.997511 201.110223l287.712758 76.657032-28.074393 104.560761-238.703457-63.430494 15.302962-56.347897-33.1659-7.623037-56.603894 209.633518c-10.2399 43.633354 2.559975 69.005551 43.860907 79.160119l213.217483 56.319452c35.697431 10.154568 64.283819 0 79.558337-27.903728 7.679925-15.21763 17.862937-35.526766 30.605925-63.94249a97.59194 97.59194 0 0 1-31.11792-20.821131z m106.608742-55.323906l25.030867 7.111042 41.300932-148.70611 87.209819 23.864657-41.300932 148.70611 29.06994 8.106587 41.329376-148.706109 86.697823 23.864657-41.300931 148.706109 22.954443 6.087052-7.679925 26.908183-22.926-6.087052-43.377356 154.793162c-5.091506 19.285146-17.834493 25.884193-36.692976 20.792687l-22.982888-6.599047 0.511995-26.367744c7.139486 3.043526 14.278972 5.063062 21.418459 7.111042 7.139486 1.991092 12.230992-1.535985 14.790967-11.178558l40.817381-146.203023-35.697431-9.614129-1.535985 5.575057c-20.906463 73.101512-45.396892 129.932959-73.954836 171.034782l-15.302963-24.348208c23.949989-38.058297 45.396892-88.319141 63.74338-151.749636l2.047981-7.623037-29.06994-8.106588-42.865361 154.281167c-5.603501 19.285146-18.346488 26.396188-39.252952 20.821131l-24.490428-6.599047 0.511995-26.396188c8.163476 3.043526 15.302962 5.575057 22.442448 7.594593 9.159022 2.559975 14.790967-0.995546 17.834493-10.638119l40.817381-145.662584-35.69743-10.154567c-21.930453 75.092603-50.004847 132.976485-84.194737 174.590302l-15.786514-24.860203c30.09393-38.598736 55.096353-90.850672 74.466832-156.841141l-25.002424-7.111042 6.115497-26.396188z m86.754712 23.864657l34.133001-123.333912-35.697431-10.154568-34.701884 123.333912 36.23787 10.154568z m115.255768 31.971244l34.18989-123.333912-35.725875-9.642573-34.161446 123.333912 35.697431 9.671018z m9.671017 227.382679l1.564429-27.932173c21.902009 7.111042 37.233416 12.202548 46.932877 14.734079 12.230992 3.555521 20.394468-1.535985 23.94999-14.734079l91.305779-327.335485 27.021959 7.594593-93.325315 333.962976c-7.139486 25.372198-22.470893 34.502776-46.932877 27.903728l-50.488398-14.222084z m88.262253-338.030492l26.026414 7.111042-71.394862 255.286407-26.026413-7.111042 71.394861-255.286407z m167.820591 23.864657l117.332192 32.48324-6.627491 23.324217a1396.210426 1396.210426 0 0 1-71.9353 106.096747c13.254982 42.097368 16.326952 77.652578 10.211456 107.092292-5.11995 17.749161-12.230992 29.439714-22.470893 35.526766-13.738533 7.111042-34.133001 7.111042-60.67141-0.511995l-1.535985-32.48324c8.675471 3.555521 13.766977 5.575057 15.814957 6.087052 13.254982 3.043526 22.442448 3.043526 27.533955 0.511995 5.603501-2.559975 9.699461-8.135032 11.747441-17.26561 7.651481-27.903729 4.067516-61.922954-11.235446-102.512781a1247.845646 1247.845646 0 0 0 71.394861-106.096746l-58.139879-16.213176-92.81332 332.938985-29.098383-8.135032 100.493245-360.842714z m123.447688 295.392684c-27.02196 31.971245-54.584358 57.343442-83.654297 77.652578l-19.370479-23.864657c29.06994-19.285146 56.091899-43.633354 81.065879-73.101511l21.958897 19.31359z m-42.836916 110.647813l1.50754-30.463704c17.862937 6.087052 30.605925 10.154568 38.769401 12.686099 7.679925 2.019536 12.230992-1.535985 15.302963-11.178558l32.141909-115.19888-96.425729-26.908183 8.191921-28.927719 96.425729 26.908183 13.738533-48.724859-54.584358-15.21763 7.679925-27.420178 135.166686 37.546302-7.679925 27.420177-50.488399-13.710089-13.766977 48.72486 92.329769 25.372198-8.163476 28.927719-92.329769-25.372198-34.161446 122.309922c-6.115496 22.869111-19.910918 30.975699-40.817381 25.400642l-42.836916-12.202548z m175.472071-346.165523c12.742987 49.236855 40.276942 94.434637 81.606318 136.532005l-24.461984 20.309136a316.782698 316.782698 0 0 1-79.586782-132.46449c-43.377356 35.526766-89.798238 60.386968-139.774641 74.609053l-9.671017-29.951709c54.043919-15.729625 102.000786-41.613818 142.789723-77.140583l29.098383 8.106588z m-17.862937 251.247335c12.742987 39.594282 21.418458 74.097057 26.026414 102.512781l-29.581935 10.154568c-4.09596-29.439714-12.230992-64.454484-23.466439-105.072757l27.02196-7.594592z" fill="#ff5252" />
    <path d="M428.795831 720.301619L61.951398 622.51057c-17.94827-5.11995-30.77659-25.599751-25.65664-44.060016l20.536689-74.751273c-12.82832 2.559975-25.656639 2.559975-38.96851 2.559975l-15.416739 61.951398c-10.2399 38.911622 12.799876 77.339693 49.265299 87.579592l304.750815 82.459643c20.508245-2.559975 51.313279-7.679925 72.333519-17.919826z m95.430183 25.599751c-15.388295 5.11995-30.77659 10.2399-44.116904 7.679926-10.2399-2.559975-17.94827-12.799876-20.536689-25.599751l-25.65664-7.679926-23.06822 30.719702 366.844434 97.847937c12.799876-7.679925 28.216615-17.919826 44.08846-25.599751l-297.525996-77.368137zM61.951398 485.779455L175.358295 62.75779c5.11995-17.919826 25.628195-30.719701 44.08846-25.599751L1386.710074 349.019896c-7.679925-12.799876-7.679925-30.719701-7.679926-38.911622L273.832004 16.649794c7.679925 10.2399 17.94827 20.479801 28.216615 28.159726-20.536689-7.679925-59.505199-20.479801-80.041889-44.031572-35.924984-5.11995-72.333519 15.359851-80.041888 51.739941L28.102838 475.51111c10.78034 5.11995 21.048684 7.679925 33.84856 10.239901zM1464.163543 983.040398c-7.679925 5.11995-17.976714 7.679925-28.216615 5.11995l-444.297902-118.811289c-41.585373-7.679925-105.726972-15.359851-172.940541-10.2399l609.530074 162.330866c5.11995 2.559975 12.799876 2.559975 17.94827 2.559975 2.559975-9.727905 10.268345-25.087756 17.976714-40.959602z m87.721814-275.538654s10.2399 7.679925 25.656639 15.35985l69.773544-265.270309c10.2399-38.911622-12.799876-77.311248-49.265299-87.579593l-209.320631-56.831448c23.096664 12.799876 69.773544 35.839652 121.598817 41.471597-12.799876 5.11995-35.924984 10.2399-56.945224 12.799875l134.427138 35.839652c17.94827 5.11995 30.77659 25.628195 25.656639 44.08846l-131.867162 492.112549c5.11995 20.479801 7.679925 46.619991 2.559975 69.659767 10.2399-10.2399 20.536689-23.039776 25.656639-38.911621l56.945224-211.510833c-17.436275-12.799876-14.8763-51.199502-14.876299-51.199502z" fill="#ff5252"/>
    <path d="M176.964092 391.415172l56.709631-32.741212 31.95708 55.348356-56.709632 32.741213-31.957079-55.348357zM602.476881 353.712247l32.747301 56.709632-55.348357 31.957079-32.74243-56.723025 55.343486-31.943686z m351.038402-62.924252l32.74243 56.703544-55.362967 31.957079-32.742431-56.703543 55.362968-31.95708zM1296.954655 834.416323a46.468414 46.468414 0 0 1-35.852176 38.578379 46.45015 46.45015 0 0 1-48.846383-19.676386 46.462326 46.462326 0 0 1 0.893717-52.656247 46.478155 46.478155 0 0 1 49.489275-18.002188c23.681065 4.945883 38.976533 28.01815 34.315567 51.756442z m121.821907-374.75356l-52.76096 36.748329h105.521921l-52.760961-36.748329z m-730.634349 56.047258l-54.335315-69.630782-33.888191 70.776542 88.223506-1.14576z m0 0" fill="#ff5252" />
</svg>