<svg viewBox="0 0 1024 1024" version="1.1" xmlns="http://www.w3.org/2000/svg">
    <path d="M512 930.133333c216.789333 0 392.533333-175.744 392.533333-392.533333S728.789333 145.066667 512 145.066667 119.466667 320.810667 119.466667 537.6s175.744 392.533333 392.533333 392.533333z" fill="#F0F4F7"></path>
    <path d="M622.3744 306.402133c0.5056-1.988267 0.759467-4.029867 0.757333-6.08 0-13.589333-11.0272-24.605867-24.629333-24.605866a24.6336 24.6336 0 0 0-24.183467 19.938133 16.7616 16.7616 0 0 0-11.272533-4.337067c-0.100267 0-0.1984 0.0128-0.3008 0.0128A30.218667 30.218667 0 0 0 532.712533 264.533333a30.208 30.208 0 0 0-30.139733 28.010667 18.688 18.688 0 0 0-31.383467 13.698133L435.2 313.224533h218.818133l-31.643733-6.8224z" fill="#FFFFFF"></path>
    <path d="M153.6 793.6c-18.852267 0-34.133333-68.768-34.133333-153.6s15.281067-153.6 34.133333-153.6c0.081067 0 25.201067 1.0048 40-16.061867 14.798933-17.066667 19.2-30.903467 19.2-52.200533 0-73.0816 31.319467-125.013333 60.266667-135.067733 8.3392-1.467733 21.333333 1.745067 34.133333-9.288534s17.066667-19.9936 17.066667-34.843733c0-80.117333 26.743467-145.066667 59.733333-145.066667s59.733333 64.949333 59.733333 145.066667c0 14.850133-1.422933 22.033067 11.377067 33.066667 12.8 11.0336 31.488 9.6 39.822933 11.0656 28.9472 10.056533 51.2 70.517333 51.2 143.598933 0.2368 14.353067 1.902933 28.644267 4.977067 42.666667 0 0 9.568 25.262933 23.466667 11.733333 13.898667-13.5296 19.477333-31.754667 21.866666-48.791467C603.236267 383.835733 617.834667 349.866667 631.466667 349.866667c13.9072 0 25.870933 35.3408 31.242666 86.5408 1.5808 15.074133 4.693333 25.051733 13.911467 37.546666A30.506667 30.506667 0 0 0 699.562667 486.4h0.170666c13.841067 0 25.755733 35.005867 31.182934 85.9904 1.066667 10.08 2.094933 16.213333 11.306666 24.590933 9.211733 8.3776 25.5296 8.885333 25.5296 8.885334H768c4.608 0 9.077333 3.84 13.2864 11.400533a125.0048 125.0048 0 0 1 10.850133 31.089067C798.583467 675.7504 802.133333 712.181333 802.133333 750.933333c0 14.542933-0.5056 28.898133-1.493333 42.666667H153.6z" fill="#E6EEF4"></path>
    <path d="M710.333867 793.6h-248.106667c-0.994133-13.7664-1.493333-28.119467-1.493333-42.666667 0-38.747733 3.549867-75.178667 9.9968-102.577066a124.919467 124.919467 0 0 1 10.850133-31.089067c4.209067-7.560533 8.6784-11.400533 13.2864-11.400533h0.247467s16.322133-0.516267 25.5296-8.887467c9.207467-8.3712 10.24-14.506667 11.306666-24.590933 5.4272-50.984533 17.344-85.988267 31.182934-85.988267a35.349333 35.349333 0 0 0 7.04-2.1632 13.141333 13.141333 0 0 0 4.405333-3.170133c13.898667-13.5296 19.477333-31.752533 21.866667-48.791467C603.240533 383.837867 617.8368 349.866667 631.4688 349.866667c13.905067 0 25.8688 35.3408 31.240533 86.542933 1.582933 15.072 4.693333 25.0496 13.911467 37.546667a30.5216 30.5216 0 0 0 10.071467 8.8A30.523733 30.523733 0 0 0 699.562667 486.4h0.1728c13.838933 0 25.755733 35.005867 31.182933 85.988267 1.066667 10.08 2.097067 16.213333 11.306667 24.590933 9.2096 8.3776 25.527467 8.887467 25.527466 8.887467H768c4.608 0 9.077333 3.84 13.2864 11.400533a125.092267 125.092267 0 0 1 10.850133 31.089067C798.583467 675.7568 802.133333 712.187733 802.133333 750.933333c0 14.545067-0.5056 28.898133-1.493333 42.666667h-90.306133z" fill="#DFE9F1"></path>
    <path d="M324.266667 827.733333c-23.121067-8.718933-34.773333 0-68.266667 0-56.554667 0-102.4-19.101867-102.4-42.666666s45.845333-42.666667 102.4-42.666667h546.133333c9.051733 0 17.7344 3.5968 24.136534 9.9968a34.141867 34.141867 0 0 1 0 48.273067A34.141867 34.141867 0 0 1 802.133333 810.666667s-33.066667 0-58.666666 6.4-43.733333 24.989867-43.733334 24.989866S619.502933 930.133333 520.533333 930.133333c-81.154133 0-149.7088-28.258133-172.046933-67.5264-4.552533-7.9936-1.098667-26.154667-24.219733-34.8736z" fill="#D3E0ED"></path>
    <path d="M886.1248 279.9424a2.129067 2.129067 0 0 1 2.999467 0.315733 2.129067 2.129067 0 0 1-0.315734 2.999467l-0.036266 0.029867-0.106667 0.085333-0.4096 0.328533a378.613333 378.613333 0 0 1-7.511467 5.794134 2.133333 2.133333 0 0 1-2.564266-3.4112 374.6432 374.6432 0 0 0 7.415466-5.719467c0.177067-0.138667 0.309333-0.245333 0.3968-0.317867l0.100267-0.078933 0.023467-0.0192 0.008533-0.0064z m-127.906133 7.453867c5.755733-3.850667 13.154133-5.397333 20.501333-4.533334a2.135467 2.135467 0 0 1-0.497067 4.238934c-6.472533-0.7616-12.8256 0.625067-17.632 3.84a2.133333 2.133333 0 1 1-2.372266-3.5456z m36.5248 4.266666a2.133333 2.133333 0 0 1 3.0144-0.138666c4.753067 4.334933 8.5504 10.269867 10.628266 17.858133a2.133333 2.133333 0 1 1-4.1152 1.1264c-1.870933-6.833067-5.250133-12.0576-9.3888-15.831467a2.133333 2.133333 0 0 1-0.138666-3.0144z m70.045866 6.715734a2.133333 2.133333 0 0 1-0.552533 2.965333 420.433067 420.433067 0 0 1-17.058133 11.1104 2.133333 2.133333 0 0 1-2.237867-3.633067 415.2704 415.2704 0 0 0 16.8832-10.997333 2.133333 2.133333 0 0 1 2.965333 0.554667z m-114.743466 5.3184c1.175467 0.081067 2.062933 1.098667 1.984 2.274133-0.187733 2.754133 0.093867 5.832533 0.968533 9.2288 0.896 3.477333 2.107733 6.391467 3.573333 8.817067a2.133333 2.133333 0 1 1-3.652266 2.205866c-1.7088-2.830933-3.067733-6.139733-4.0512-9.956266-0.977067-3.7888-1.316267-7.325867-1.096534-10.5856a2.135467 2.135467 0 0 1 2.274134-1.984z m80.3264 16.0384a2.133333 2.133333 0 0 1-0.885334 2.884266c-6.107733 3.236267-12.337067 6.2336-18.496 8.765867a2.129067 2.129067 0 0 1-1.376 0.0832c-0.674133 5.585067-2.024533 11.662933-4.1664 18.244267a2.133333 2.133333 0 1 1-4.0576-1.3184c2.261333-6.952533 3.586133-13.250133 4.151467-18.9184a2.135467 2.135467 0 0 1 3.191467-1.634134 2.1248 2.1248 0 0 1 0.635733-0.4032c6.0032-2.468267 12.106667-5.4016 18.1184-8.5888a2.133333 2.133333 0 0 1 2.884267 0.885334z m-37.358934 15.4304a2.133333 2.133333 0 0 1-1.634133 2.536533c-7.4944 1.6192-14.656 2.075733-20.987733 0.746667a2.133333 2.133333 0 0 1 0.8768-4.177067c5.540267 1.162667 12.053333 0.8064 19.208533-0.740267a2.133333 2.133333 0 0 1 2.536533 1.634134z m3.784534 30.4704a2.133333 2.133333 0 0 1 0.989866 2.850133 213.8752 213.8752 0 0 1-9.572266 17.506133 2.133333 2.133333 0 0 1-3.648-2.210133 209.518933 209.518933 0 0 0 9.380266-17.156267 2.133333 2.133333 0 0 1 2.850134-0.989866z m-20.1152 34.178133a2.133333 2.133333 0 0 1 0.516266 2.971733 377.169067 377.169067 0 0 1-12.0064 16.0768 2.133333 2.133333 0 0 1-3.3536-2.638933 368.6144 368.6144 0 0 0 11.869867-15.895467 2.135467 2.135467 0 0 1 2.973867-0.514133z m-24.4288 31.464533a2.133333 2.133333 0 0 1 0.228266 3.008 564.4672 564.4672 0 0 1-13.252266 14.8672 2.133333 2.133333 0 1 1-3.136-2.8928 555.125333 555.125333 0 0 0 13.152-14.756266 2.133333 2.133333 0 0 1 3.008-0.226134z m-26.766934 29.28a2.133333 2.133333 0 0 1 0.032 3.016534 790.903467 790.903467 0 0 1-7.214933 7.2704 2.1312 2.1312 0 1 1-3.008-3.025067 756.3264 756.3264 0 0 0 7.1744-7.229867 2.1312 2.1312 0 0 1 3.016533-0.032z" fill="#96ACCC"></path>
    <path d="M674.133333 491.274667c6.72-6.293333 25.6-4.693333 25.6-4.693334s-3.2 8.533333-5.546666 17.066667-0.494933 12.676267-3.84 17.066667c-8.533333 11.2-24.746667 10.666667-24.746667 10.666666s1.6-7.253333 4.266667-17.066666-2.453333-16.746667 4.266666-23.04z" fill="#96ACCC"></path>
    <path d="M644.490667 372.544a13.0944 13.0944 0 0 0-2.961067 8.2752L614.4 388.1344h139.1168l-25.105067-5.774933c0.5504-2.129067 0.827733-4.317867 0.8256-6.5152 0-14.346667-11.643733-25.9776-26.005333-25.9776a25.988267 25.988267 0 0 0-25.986133 25.262933 8.571733 8.571733 0 0 0-4.9088-1.533867 8.580267 8.580267 0 0 0-5.661867 2.120534 13.096533 13.096533 0 0 0-22.184533-3.172267zM119.466667 691.2l121.6 9.6 168.533333-9.6 67.2 25.6 36.266667 21.333333-78.933334 18.133334-52.266666-10.666667-123.733334 10.666667-130.133333-16-8.533333-49.066667z" fill="#FFFFFF"></path>
    <path d="M127.146667 738.56L258.133333 755.2l125.333334-11.2L435.2 755.2l76.8-19.2v52.266667l-73.813333 9.6-34.56-15.466667-69.546667 2.666667-10.88 3.2-49.706667-5.866667-132.693333 3.2s-4.693333-13.9456-8.106667-25.706667c-3.413333-11.761067-5.546667-21.333333-5.546666-21.333333z" fill="#F0F4F7"></path>
    <path d="M343.466667 736c50.6624 0 91.733333-9.073067 91.733333-20.266667s-41.070933-20.266667-91.733333-20.266666-91.733333 9.073067-91.733334 20.266666 41.070933 20.266667 91.733334 20.266667z" fill="#E6EEF4"></path>
    <path d="M399.509333 607.04a66.6304 66.6304 0 0 1 15.114667 22.24c5.9136 14.08 12.5376 28.712533 17.890133 31.530667 5.352533 2.818133 7.882667 21.403733-17.179733 17.461333-25.0624-3.9424-15.825067-71.232-15.825067-71.232z" fill="#FFFFFF"></path>
    <path d="M401.538133 612.714667a68.9984 68.9984 0 0 1 14.833067 35.9488c1.806933 18.4064 6.257067 28.4416 10.9888 27.767466a26.997333 26.997333 0 0 1-12.7808-0.053333c-7.498667-1.646933-16.0704-63.424-13.041067-63.662933z" fill="#F0F4F7"></path>
    <path d="M396.964267 717.056a73.405867 73.405867 0 0 0 30.158933 2.325333c14.72-2.08 18.6176-29.326933-1.380267-32.125866-15.502933-2.176-12.855467-25.956267-15.714133-47.857067-2.858667-21.9008-13.994667-40.209067-15.709867-49.122133-1.7152-8.913067 9.0688-19.697067 7.709867-38.532267-1.390933-19.338667-13.44-22.3552-17.7216-21.4912-4.2816 0.864-7.6992 5.102933-13.128533 7.402667-5.429333 2.299733-13.422933-1.435733-23.7056 3.453866s-20.004267 16.100267-20.004267 16.100267c-4.285867 5.463467 0.853333 22.715733-2.001067 31.3408-2.8544 8.625067-14.280533 83.675733-13.994666 104.6656 0.285867 20.989867 13.7088 35.658667 42.564266 39.396267 28.855467 3.7376 41.4272-1.2928 42.359467-9.489067 0.5952-5.211733 4.064-23.579733-16.64-26.741333-10.304-1.578667-15.707733-2.8736-15.707733-2.8736" fill="#FFFFFF"></path>
    <path d="M381.531733 533.649067s2.050133-3.3664 3.682134-3.400534c2.801067-0.055467 5.76 3.479467 5.76 3.479467s-9.3504 3.697067-9.442134-0.078933zM385.307733 512.155733c-4.381867-1.143467-4.859733 4.448-4.859733 4.448s-6.165333-0.667733-5.546667 3.7184c0.7616 5.474133 12.439467 5.211733 12.439467 5.211734s3.313067-11.978667-2.033067-13.378134z" fill="#96ACCC"></path>
    <path d="M329.495467 560.96s-12.987733-2.8544-14.410667 7.0784c-1.422933 9.9328 8.919467 16.0192 16.3328 1.28" fill="#FFFFFF"></path>
    <path d="M329.777067 634.133333s-3.093333 38.186667 2.346666 47.754667c4.906667 8.6272 22.7456 10.961067 35.744 9.877333a53.444267 53.444267 0 0 0 12.827734-2.658133c12.945067-4.6016 6.039467-13.226667 0-18.971733-6.039467-5.745067-7.9744-22.071467-18.331734-30.933334" fill="#F0F4F7"></path>
    <path d="M359.274667 547.6736a1.2992 1.2992 0 0 0-1.1136 0.661333l-0.0192 0.029867a10.276267 10.276267 0 0 1-6.8864 4.9536h-0.040534a1.2864 1.2864 0 0 0-1.085866 1.066667h-0.023467l-0.866133 2.299733s0.727467-0.029867 1.796266-0.187733l0.1216-0.654934 0.234667-1.245866v1.845333c0.401067-0.066133 0.829867-0.155733 1.28-0.258133v-1.5936l0.136533 0.968533 0.078934 0.571733a11.9616 11.9616 0 0 0 5.090133-2.427733 8.714667 8.714667 0 0 0 2.5728-4.746667 1.271467 1.271467 0 0 0-0.373333-0.904533 1.271467 1.271467 0 0 0-0.9024-0.3776z" fill="#96ACCC"></path>
    <path d="M403.84 637.672533c-7.68-7.4816-14.434133 1.184-14.434133 1.184s-13.226667-10.427733-18.133334 0.554667c-6.1376 13.700267 25.175467 35.822933 25.175467 35.822933s15.2512-29.905067 7.392-37.5616z" fill="#F0F4F7"></path>
    <path d="M329.860267 632.778667s10.709333 32.584533 16.151466 42.154666c6.903467 12.1344 20.1984 18.154667 33.137067 13.557334 12.938667-4.597333 6.039467-11.790933 0-17.5424-6.039467-5.751467-8.6912-25.147733-19.048533-34.011734" fill="#FFFFFF"></path>
    <path d="M516.266667 878.577067l38.4-20.266667 5.6896 8.533333v17.493334L544 896l-10.3104-11.665067-17.422933 2.429867v-8.187733z" fill="#F0F4F7"></path>
    <path d="M524.8 864.356267L554.666667 857.6v21.333333l-10.666667 6.756267-10.3104-8.533333L516.266667 878.933333l8.533333-14.577066z" fill="#FFFFFF"></path>
    <path d="M565.000533 808.0064l34.833067-14.116267 0.0128 30.103467-4.6144 9.8368-30.2208 0.0128-0.010667-25.8368z" fill="#F0F4F7"></path>
    <path d="M586.133333 793.6H599.466667l-8 14.933333H565.333333l20.8-14.933333zM870.4 697.6l-70.564267 9.6-84.494933-9.6-33.691733 25.6L663.466667 744.533333l39.573333 18.133334 26.203733-10.666667 62.0352 10.666667 50.107734-10.666667 13.796266-25.8688L870.4 697.6z" fill="#FFFFFF"></path>
    <path d="M842.24 748.672l-59.946667 8.416-57.341866-5.6576-23.68 5.664L663.466667 744.533333v29.277867L699.9104 778.666667l15.816533-7.822934 31.822934 1.348267 4.9792 1.6192 22.7456-2.967467 61.847466 2.967467s-2.986667-3.793067 0-10.077867a93.749333 93.749333 0 0 0 5.117867-15.061333z" fill="#F0F4F7"></path>
</svg>