<svg viewBox="0 0 1024 1024" version="1.1" xmlns="http://www.w3.org/2000/svg" width="48">
    <path d="M73.143 311h329.143v402.286H73.143C32.747 713.286 0 680.539 0 640.143v-256C0 343.747 32.747 311 73.143 311z" fill="#ffffff" />
    <path d="M402.286 311v402.286H73.143C32.747 713.286 0 680.539 0 640.143v-256C0 343.747 32.747 311 73.143 311h329.143zM384 695V329.286H73.143c-29.215 0-53.096 22.837-54.764 51.634l-0.093 3.223v256c0 29.215 22.837 53.095 51.634 54.764l3.223 0.093H384z" fill="#ff5252" />
    <path d="M950.857 311.5H394.443v401.286h556.414c20.06 0 38.22-8.131 51.366-21.277s21.277-31.306 21.277-51.366v-256c0-20.06-8.13-38.22-21.277-51.366-13.145-13.146-31.306-21.277-51.366-21.277z" fill="#ff5252" />
    <path d="M701.733 602.182v-12.727h-31.818v-96.768h-63.634c0.878-3.95 1.536-8.119 2.414-12.508h89.088v-12.068H610.45l1.317-12.727h71.095v-41.033H523.995v41.033h71.973l-1.317 12.727h-85.357v12.068h83.602l-2.414 12.508h-53.32v96.768h-31.818v12.727h196.389zM667.94 444.193h-32.695v-18.212h32.695v18.212z m-47.178 0h-34.67v-18.212h34.67v18.212z m-48.932 0h-32.695v-18.212h32.695v18.212z m82.505 73.29H552.521v-13.825h101.815v13.824z m0 23.698H552.521v-13.824h101.815v13.824z m0 23.917H552.521v-13.824h101.815v13.824z m0 24.357H552.521v-14.482h101.815v14.482z m176.64-31.159V468.55h66.487v89.307h15.58V453.848h-44.106c1.317-7.46 2.194-15.14 2.853-23.04h48.493v-15.36h-111.03v15.36h46.518c-0.658 7.9-1.536 15.58-2.852 23.04h-37.303v104.448h15.36z m-74.606 46.08c12.508 0 18.871-6.583 18.871-19.53V430.809h26.332v-15.36H725.21v15.36h33.792v150.09c0 6.143-2.852 9.435-8.118 9.435-7.242 0-14.922-0.44-22.821-0.878l3.51 14.921h24.796z m44.764 1.975c24.356-7.46 41.91-17.554 52.663-30.281 10.971-13.605 16.676-32.256 17.334-55.516v-39.058h-15.579v39.058c-0.658 18.652-5.266 33.792-14.043 45.422-9.216 11.19-25.454 20.187-48.933 26.99l8.558 13.385z m109.495 1.097l11.41-11.63c-10.752-12.288-24.137-24.356-39.936-36.644l-10.752 10.093c16.676 13.605 29.623 26.332 39.278 38.181z" fill="#FFFFFF" />
    <path d="M199.295 450.63c4.067 0 8.002 1.69 10.832 4.562L279.45 526.3c4.996 5.154 3.67 9.844 2.83 11.619-0.796 1.816-3.493 5.957-10.876 5.957h-28.87c-0.09 0-0.178 0.084-0.178 0.169v50.785c0 8.07-6.897 14.66-15.341 14.66h-55.487c-8.444 0-15.341-6.59-15.341-14.66v-50.743c0-0.084-0.089-0.169-0.177-0.169h-28.87c-7.384 0-10.081-4.183-10.877-5.957-0.796-1.775-2.166-6.507 2.874-11.661l69.325-71.108c2.83-2.915 6.764-4.563 10.832-4.563z m82.798-42.282a1 1 0 0 1 1 1v31.524a1 1 0 0 1-1 1H116.474a1 1 0 0 1-1-1v-31.524a1 1 0 0 1 1-1h165.619z" fill="#ff5252" />
</svg>
