<svg viewBox="0 0 1024 1024" version="1.1" xmlns="http://www.w3.org/2000/svg">
    <path d="M1023.914667 481.860267L542.1568 1.0752H0.477867l1023.4368 1022.344533z" fill="#FF5252" ></path>
    <path d="M590.609067 217.719467l-51.541334-51.4048-148.906666 148.957866-38.570667-38.5024 148.906667-148.957866-51.421867-51.285334 31.4368-31.4368 141.533867 141.175467-31.4368 31.453867z m-45.568 76.6464c28.245333-28.2624 59.511467-43.008 93.764266-44.288 34.2528-1.262933 64.938667 11.639467 92.074667 38.690133 25.8048 25.736533 37.9904 55.04 36.573867 87.893333-1.399467 32.8704-15.581867 62.7712-42.513067 89.7024-28.091733 28.1088-59.0848 42.752-92.945067 43.946667-33.860267 1.194667-64.0512-11.434667-90.555733-37.888-25.890133-25.8048-38.434133-55.261867-37.632-88.354133 0.785067-33.092267 14.5408-62.976 41.233067-89.7024z m42.564266 38.263466c-17.544533 17.544533-27.648 36.113067-30.327466 55.7056-2.6624 19.592533 3.396267 36.7616 18.158933 51.490134 15.086933 15.035733 32.1536 21.4016 51.217067 19.114666 19.063467-2.321067 37.614933-12.458667 55.620266-30.481066 18.773333-18.773333 29.5424-37.717333 32.290134-56.763734 2.730667-19.0464-3.310933-35.976533-18.158934-50.773333-15.069867-15.0528-32.546133-21.2992-52.394666-18.773333-19.831467 2.542933-38.638933 12.6976-56.405334 30.481066z m189.661867 243.1488l-62.8736 62.8736-38.485333-38.365866 180.360533-180.394667 62.122667 61.986133c44.936533 44.8 48.384 86.237867 10.359466 124.279467-18.4832 18.4832-40.072533 26.5216-64.768 24.132267-24.695467-2.389333-47.0016-13.9776-66.901333-34.747734l-19.8144-19.7632z m87.671467-87.7056l-58.2144 58.231467 16.674133 16.64c22.613333 22.545067 43.741867 24.0128 63.3856 4.369067 19.165867-19.165867 17.5616-39.936-4.829867-62.2592l-17.015466-16.981334z" fill="#FFFFFF" ></path>
</svg>